<svg xmlns="http://www.w3.org/2000/svg" width="44.457" height="45.623" viewBox="0 0 44.457 45.623">
  <path id="Icon_awesome-arrow-up" data-name="Icon awesome-arrow-up"
    d="M3.376,28.471,1.115,26.211a2.434,2.434,0,0,1,0-3.452L20.9,2.964a2.434,2.434,0,0,1,3.452,0L44.136,22.749a2.434,2.434,0,0,1,0,3.452l-2.261,2.261a2.447,2.447,0,0,1-3.493-.041L26.7,16.161V45.425a2.438,2.438,0,0,1-2.444,2.444H21a2.438,2.438,0,0,1-2.444-2.444V16.161L6.868,28.431a2.429,2.429,0,0,1-3.493.041Z"
    transform="translate(-0.397 -2.246)" fill="currentColor" />
</svg>
