<svg id="Icon_attach" xmlns="http://www.w3.org/2000/svg" width="14.596" height="18.806" viewBox="0 0 14.596 18.806">
  <path id="Path"
    d="M8.484.025a4.94,4.94,0,0,1,5.024,2.9,3.718,3.718,0,0,1-.144,3.449l-4.5,7.794a3.232,3.232,0,0,1-1.427,1.294,2.851,2.851,0,0,1-2.671-.2A2.851,2.851,0,0,1,3.26,13.052a3.233,3.233,0,0,1,.408-1.883l4-6.928a1,1,0,0,1,1.732,1l-4,6.928a1.239,1.239,0,0,0-.15.682.865.865,0,0,0,.516.684.864.864,0,0,0,.85.1,1.238,1.238,0,0,0,.516-.471l4.5-7.794a1.721,1.721,0,0,0,.049-1.636A2.94,2.94,0,0,0,8.694,2.014a1.722,1.722,0,0,0-1.392.86l-5,8.66c-.654,1.133-.286,3.3,1.964,4.6s4.31.535,4.964-.6l3.5-6.062a1,1,0,1,1,1.732,1l-3.5,6.062c-1.346,2.331-4.75,3.031-7.7,1.33s-4.042-5-2.7-7.33l5-8.66A3.718,3.718,0,0,1,8.484.025Z"
    transform="translate(0)" fill="currentColor" />
</svg>
