<svg xmlns="http://www.w3.org/2000/svg" width="24.988" height="25" viewBox="0 0 24.988 25">
  <path id="Pfad_289" data-name="Pfad 289" d="M446.484,669.367v1.465c-.02.176-.04.351-.06.527a12.538,12.538,0,0,1-10.286,11.047c-.47.083-.947.131-1.42.194h-1.465c-.418-.052-.839-.09-1.254-.16a12.531,12.531,0,0,1-10.442-13.6,11.926,11.926,0,0,1,3.051-6.986,12.236,12.236,0,0,1,8.852-4.241,11.881,11.881,0,0,1,6.893,1.742,12.317,12.317,0,0,1,5.935,8.59C446.377,668.417,446.42,668.894,446.484,669.367ZM434.847,680.86c.262-.033.495-.058.726-.094a13.031,13.031,0,0,0,3.694-1.275,3.288,3.288,0,0,0,1.605-1.7,4.8,4.8,0,0,0,.342-2.364,5.983,5.983,0,0,0-.963-3.081c-.609-.853-1.265-1.673-1.912-2.5a13.862,13.862,0,0,1-1.991-3.171,8.215,8.215,0,0,1-.63-3.087c0-.072-.053-.2-.1-.207-.252-.042-.508-.055-.775-.079Zm-1.732.025V663.3c-.221.021-.422.051-.623.055-.183,0-.25.062-.25.258a7.886,7.886,0,0,1-.334,2.259,10.427,10.427,0,0,1-1.774,3.313c-.663.875-1.351,1.731-2.031,2.593a6.376,6.376,0,0,0-1.329,4.573,3.584,3.584,0,0,0,1.843,3.089,12.369,12.369,0,0,0,3.021,1.153C432.117,680.712,432.606,680.787,433.116,680.886Zm9.838-4.878.081.022c.313-.586.662-1.155.933-1.76a6.305,6.305,0,0,0-.95-6.98,10.737,10.737,0,0,0-4.9-3.329c-.215-.077-.438-.135-.667-.205,0,.139,0,.244,0,.349,0,.065.013.129.021.194a7.155,7.155,0,0,0,1.379,3.37c.639.882,1.317,1.737,2.006,2.58a8.581,8.581,0,0,1,2.039,4.816C442.924,675.379,442.936,675.694,442.954,676.008ZM425.035,676c0-.1,0-.192,0-.287a8.043,8.043,0,0,1,1.522-4.7c.678-.9,1.39-1.782,2.083-2.675a8.763,8.763,0,0,0,1.7-3.233c.108-.433.151-.883.226-1.333a.751.751,0,0,0-.116,0,10.875,10.875,0,0,0-5.594,3.672,6.566,6.566,0,0,0-1.5,3.967A7.41,7.41,0,0,0,425.035,676Zm-.843-10.355a12.7,12.7,0,0,1,2.727-2.185,15.309,15.309,0,0,1,3.209-1.406,2.331,2.331,0,0,0-.552-.4,4.1,4.1,0,0,0-1.914-.241.383.383,0,0,0-.208.109c-.449.4-.917.779-1.333,1.21A9.531,9.531,0,0,0,424.191,665.645Zm19.614.06a1.228,1.228,0,0,0-.038-.144,10.779,10.779,0,0,0-3.306-4.087.287.287,0,0,0-.176-.063c-.548.044-1.1.07-1.641.154a1.148,1.148,0,0,0-.8.525A12.633,12.633,0,0,1,443.806,665.706Zm-10.69-4.127v-2.232a10.572,10.572,0,0,0-2.95.667.613.613,0,0,0,.077.054,3.223,3.223,0,0,1,1.606,1.536.211.211,0,0,0,.168.091C432.379,661.664,432.741,661.62,433.116,661.578Zm1.736-2.23v2.23c.376.042.737.09,1.1.114.065,0,.164-.083.2-.152a3.066,3.066,0,0,1,1.044-1.17c.19-.121.387-.232.6-.359A10.471,10.471,0,0,0,434.852,659.348Z" transform="translate(-421.496 -657.6)" fill="#fff"/>
</svg>
