<svg xmlns="http://www.w3.org/2000/svg" width="11.92" height="25" viewBox="0 0 11.92 25">
  <path id="Pfad_62" data-name="Pfad 62"
    d="M21.161,7.877,20.9,7.082a2.206,2.206,0,0,0-2.1-1.511h-.837V3.362A1.365,1.365,0,0,0,16.6,2H13.969a1.365,1.365,0,0,0-1.363,1.362V5.571h-.837a2.2,2.2,0,0,0-2.095,1.51l-.265.8a1.617,1.617,0,0,0,.75,1.939l.4.793a.221.221,0,0,1-.04.255,1.991,1.991,0,0,0-.587,1.419v2.74a1.8,1.8,0,0,0,.523,1.262,1.8,1.8,0,0,0-.523,1.262v7.563A1.891,1.891,0,0,0,11.817,27h6.936a1.891,1.891,0,0,0,1.889-1.889V17.548a1.8,1.8,0,0,0-.523-1.262,1.8,1.8,0,0,0,.523-1.262v-2.74a1.991,1.991,0,0,0-.587-1.419.22.22,0,0,1-.041-.254l.4-.795a1.617,1.617,0,0,0,.75-1.939ZM14.392,3.786h1.786V5.571H14.392Zm-3.024,3.86a.422.422,0,0,1,.4-.288H18.8a.423.423,0,0,1,.4.289l.2.6H11.167Zm7.488,7.378a1.785,1.785,0,0,0,0,2.525v7.563a.1.1,0,0,1-.1.1H11.817a.1.1,0,0,1-.1-.1V17.548a1.785,1.785,0,0,0,0-2.525v-2.74a.217.217,0,0,1,.064-.156,2,2,0,0,0,.471-2.091H18.32a2,2,0,0,0,.471,2.091.217.217,0,0,1,.064.156Z"
    transform="translate(-9.325 -2)" fill="currentColor" />
</svg>
