<svg xmlns="http://www.w3.org/2000/svg" width="20.564" height="25.647" viewBox="0 0 20.564 25.647">
  <g id="burn" transform="translate(-211.85 259.166)">
    <path id="Pfad_57" data-name="Pfad 57"
      d="M222.465-258.932a.844.844,0,0,0-.947.2.845.845,0,0,0-.141.957l.058.116a13.966,13.966,0,0,1,1.368,3.6c.322,1.835-.444,2.449-1.048,2.751a1.619,1.619,0,0,1-1.719-.316,1.8,1.8,0,0,1-.48-2.04.843.843,0,0,0-.247-.9.841.841,0,0,0-.93-.117C214.682-252.841,212-248.262,212-243.8a10.143,10.143,0,0,0,10.132,10.132A10.144,10.144,0,0,0,232.264-243.8C232.264-249.1,228.83-256.2,222.465-258.932Zm-.333,11.753a5.071,5.071,0,0,0-5.066,5.066,5.071,5.071,0,0,0,5.066,5.066,5.071,5.071,0,0,0,5.066-5.066A5.071,5.071,0,0,0,222.132-247.179Zm0,8.444a3.381,3.381,0,0,1-3.377-3.377,3.381,3.381,0,0,1,3.377-3.377,3.381,3.381,0,0,1,3.377,3.377A3.381,3.381,0,0,1,222.132-238.736Zm0,3.377a8.453,8.453,0,0,1-8.444-8.444,11.171,11.171,0,0,1,4.106-8.53,3.369,3.369,0,0,0,1.134,1.98,3.3,3.3,0,0,0,3.581.551c1.155-.578,2.432-1.837,1.956-4.554a10.442,10.442,0,0,0-.515-1.83,16.112,16.112,0,0,1,6.625,12.382A8.453,8.453,0,0,1,222.132-235.358Z"
      fill="currentColor" stroke="currentColor" stroke-width="0.3" />
  </g>
</svg>
