<svg xmlns="http://www.w3.org/2000/svg" width="25.4" height="25.4" viewBox="0 0 25.4 25.4">
  <g id="_04_-_Calendar" data-name="04 - Calendar" transform="translate(0.2 0.2)">
    <path id="Pfad_219" data-name="Pfad 219"
      d="M26,7.065A3.3,3.3,0,0,0,22.667,3.8H4.333A3.3,3.3,0,0,0,1,7.065V22.735A3.3,3.3,0,0,0,4.333,26H22.667A3.3,3.3,0,0,0,26,22.735V7.065Zm-1.667,0V22.735a1.649,1.649,0,0,1-1.667,1.632H4.333a1.649,1.649,0,0,1-1.667-1.632V7.065A1.649,1.649,0,0,1,4.333,5.432H22.667a1.649,1.649,0,0,1,1.667,1.632Z"
      transform="translate(-1 -1)" fill="currentColor" stroke="currentColor" stroke-width="0.4" fill-rule="evenodd" />
    <path id="Pfad_220" data-name="Pfad 220" d="M8,2V7.6a1,1,0,1,0,2,0V2A1,1,0,0,0,8,2Z" transform="translate(-2.25 -1)"
      fill="currentColor" stroke="currentColor" stroke-width="0.4" fill-rule="evenodd" />
    <path id="Pfad_221" data-name="Pfad 221" d="M2,14.2H25v-2H2Z" transform="translate(-1 -3)" fill="currentColor"
      stroke="currentColor" stroke-width="0.4" fill-rule="evenodd" />
    <path id="Pfad_222" data-name="Pfad 222" d="M22,2V7.6a1,1,0,1,0,2,0V2a1,1,0,0,0-2,0Z"
      transform="translate(-4.75 -1)" fill="currentColor" stroke="currentColor" stroke-width="0.4"
      fill-rule="evenodd" />
    <circle id="Ellipse_2" data-name="Ellipse 2" cx="1.505" cy="1.505" r="1.505" transform="translate(4.721 12.706)"
      fill="currentColor" stroke="currentColor" stroke-width="0.4" />
    <circle id="Ellipse_3" data-name="Ellipse 3" cx="1.505" cy="1.505" r="1.505" transform="translate(10.995 12.706)"
      fill="currentColor" stroke="currentColor" stroke-width="0.4" />
    <circle id="Ellipse_4" data-name="Ellipse 4" cx="1.505" cy="1.505" r="1.505" transform="translate(17.269 12.706)"
      fill="currentColor" stroke="currentColor" stroke-width="0.4" />
    <circle id="Ellipse_5" data-name="Ellipse 5" cx="1.505" cy="1.505" r="1.505" transform="translate(17.269 18.32)"
      fill="currentColor" stroke="currentColor" stroke-width="0.4" />
    <circle id="Ellipse_6" data-name="Ellipse 6" cx="1.505" cy="1.505" r="1.505" transform="translate(10.995 18.32)"
      fill="currentColor" stroke="currentColor" stroke-width="0.4" />
    <circle id="Ellipse_7" data-name="Ellipse 7" cx="1.505" cy="1.505" r="1.505" transform="translate(4.721 18.32)"
      fill="currentColor" stroke="currentColor" stroke-width="0.4" />
  </g>
</svg>
