<svg xmlns="http://www.w3.org/2000/svg" width="26.14" height="26.136" viewBox="0 0 26.14 26.136">
  <g id="Gruppe_42" data-name="Gruppe 42" transform="translate(-336.662 -585.283)">
    <path id="Pfad_291" data-name="Pfad 291" d="M336.712,823.457c.066-.3.118-.6.2-.887a5.084,5.084,0,1,1,5.536,6.436.837.837,0,0,0-.142.045h-1.017a1.022,1.022,0,0,0-.142-.045,5.012,5.012,0,0,1-4.241-3.669c-.089-.28-.131-.575-.2-.862Zm8.137.51a3.051,3.051,0,1,0-3.06,3.049A3.062,3.062,0,0,0,344.849,823.967Z" transform="translate(0 -217.682)" fill="#fff" stroke="#fff" stroke-width="0.1"/>
    <path id="Pfad_292" data-name="Pfad 292" d="M574.815,829.042c-.384-.094-.778-.16-1.15-.287a5.076,5.076,0,1,1,2.309.243.843.843,0,0,0-.141.045Zm-2.543-5.078a3.051,3.051,0,1,0,3.051-3.058A3.064,3.064,0,0,0,572.272,823.964Z" transform="translate(-217.657 -217.674)" fill="#fff" stroke="#fff" stroke-width="0.1"/>
    <path id="Pfad_293" data-name="Pfad 293" d="M451.8,675v2.019c-.075.005-.148.014-.221.014-1.356,0-2.712,0-4.068.005a.358.358,0,0,1-.343-.194c-.692-1.055-1.391-2.105-2.088-3.157-.05-.076-.1-.149-.172-.245l-4.436,4.85,1.189,1c.649.545,1.3,1.086,1.943,1.638a.352.352,0,0,1,.121.265c-.369,2.134-.749,4.265-1.134,6.436l-2-.353c.085-.492.164-.965.249-1.438.226-1.266.451-2.533.684-3.8a.3.3,0,0,0-.13-.321c-1.482-1.239-2.957-2.486-4.441-3.723a3.062,3.062,0,0,1-.288-4.613c1.058-1.134,2.108-2.274,3.163-3.411a3.051,3.051,0,0,1,4.516-.194c.069.063.136.128.208.186a9.528,9.528,0,0,1,2.209,2.56c.454.754.975,1.466,1.447,2.21a.513.513,0,0,0,.51.266C449.74,674.993,450.756,675,451.8,675Zm-8.2-3.142c-.246-.225-.473-.439-.707-.644a1.012,1.012,0,0,0-1.511.082q-.495.529-.986,1.062c-.772.833-1.546,1.663-2.314,2.5a.987.987,0,0,0-.023,1.4c.261.262.561.486.85.733Z" transform="translate(-92.317 -77.87)" fill="#fff" stroke="#fff" stroke-width="0.1"/>
    <path id="Pfad_294" data-name="Pfad 294" d="M559.9,585.333a3.051,3.051,0,1,1-3.049,3.059A3.061,3.061,0,0,1,559.9,585.333Zm1.018,3.072a1.017,1.017,0,1,0-1.038.995A1.021,1.021,0,0,0,560.917,588.405Z" transform="translate(-205.185)" fill="#fff" stroke="#fff" stroke-width="0.1"/>
  </g>
</svg>
