<svg xmlns="http://www.w3.org/2000/svg" width="27.995" height="26.186" viewBox="0 0 27.995 26.186">
  <path id="Pfad_278" data-name="Pfad 278"
    d="M29.872,15.963a7.671,7.671,0,0,0-1.8-3.836l-6.3-7.377a5.463,5.463,0,0,0-7.815-.541l-3.362,3a2.993,2.993,0,0,0-1,2.234A3.038,3.038,0,0,0,10.61,11.7a6.574,6.574,0,0,0,.682.531,6.463,6.463,0,0,0,2.218.961,3.775,3.775,0,0,0,3.324-.907l.6-.539h0a6.048,6.048,0,0,1,1.523,3.2,5.855,5.855,0,0,1-.017,1.728c-.094-.032-.185-.074-.28-.1a7.624,7.624,0,0,0-5.7.7,6.836,6.836,0,0,0-.525-.494,6.309,6.309,0,0,0-9,.9,6.594,6.594,0,0,0,.886,9.134A6.268,6.268,0,0,0,8.374,28.3c.208,0,.418-.01.627-.03a6.333,6.333,0,0,0,1.571-.368,17.345,17.345,0,0,0,4.974,1.068Q16.07,29,16.579,29a19.147,19.147,0,0,0,10.945-3.684,1,1,0,0,0,.268-.286A13.579,13.579,0,0,0,29.872,15.963Zm-3.678,7.846a16.907,16.907,0,0,1-10.525,3.163,15.172,15.172,0,0,1-2.88-.474,6.532,6.532,0,0,0,.539-.586,1,1,0,1,0-1.559-1.252,4.31,4.31,0,0,1-6.157.624A4.582,4.582,0,0,1,5,18.936a4.33,4.33,0,0,1,2.965-1.618,4.273,4.273,0,0,1,3.192.994A4.449,4.449,0,0,1,12.4,19.988,1,1,0,1,0,14.24,19.2c-.039-.092-.089-.176-.132-.265a5.533,5.533,0,0,1,4-.446,5.327,5.327,0,0,1,2.245,1.352,1,1,0,0,0,1.411-1.417,7.6,7.6,0,0,0-.97-.8,7.879,7.879,0,0,0,.155-2.958,8.092,8.092,0,0,0-2.3-4.548c.017-.041.039-.079.056-.12l.528-1.313a1,1,0,1,0-1.856-.746l-.527,1.313a2.608,2.608,0,0,1-.741,1.005l-.6.539a1.779,1.779,0,0,1-1.552.449,4.489,4.489,0,0,1-1.537-.665,4.572,4.572,0,0,1-.472-.369,1.031,1.031,0,0,1-.343-.77.979.979,0,0,1,.329-.742l3.362-3a3.421,3.421,0,0,1,2.545-.878,3.467,3.467,0,0,1,2.418,1.225l6.3,7.378A5.683,5.683,0,0,1,27.9,16.28,11.51,11.51,0,0,1,26.194,23.809Z"
    transform="translate(-2.005 -2.814)" fill="currentColor" />
</svg>
