<svg xmlns="http://www.w3.org/2000/svg" width="24.401" height="24.401" viewBox="0 0 24.401 24.401">
  <path id="Pfad_279" data-name="Pfad 279" d="M25,6.207A12.2,12.2,0,0,0,4.153,14.791c0,.1.007.2.013.3l.013.254a12.14,12.14,0,0,0,8.2,11,1.229,1.229,0,0,0,.12.044,12.22,12.22,0,0,0,3.829.63h.026a12.146,12.146,0,0,0,3.844-.629.719.719,0,0,0,.135-.047A12.127,12.127,0,0,0,28.522,15.4a.794.794,0,0,0,.012-.181l.008-.142c.006-.08.012-.159.012-.238A12.121,12.121,0,0,0,25,6.207Zm.74,4.481a10.1,10.1,0,0,1,.749,2.573l-1.334-.919Zm-2.117-3.11a10.121,10.121,0,0,1,.82.945l-1.209,3.422-2.894.94L17.327,10.7V7.65l2.994-2.294A10.173,10.173,0,0,1,23.622,7.578Zm-4.6,6.753L18,17.469H14.7l-1.018-3.137,2.668-1.94ZM16.352,4.56v-.2l.023.2a10.362,10.362,0,0,1,1.618.13L16.354,5.946,14.717,4.691A10.367,10.367,0,0,1,16.352,4.56ZM9.118,7.547a10.2,10.2,0,0,1,3.269-2.193l3,2.3V10.7l-3.008,2.185-2.9-.942L8.269,8.521A9.922,9.922,0,0,1,9.118,7.547ZM6.972,10.684l.58,1.643-1.331.916A10.03,10.03,0,0,1,6.972,10.684ZM9.824,22.711l1.1-.027.3,1.009A10.188,10.188,0,0,1,9.824,22.711Zm1.313-1.976-3.092.078a10.163,10.163,0,0,1-1.9-5.155l2.722-1.875,2.908.946,1.153,3.546Zm8.041,3.944a10.29,10.29,0,0,1-5.637,0l-.832-2.8L14.5,19.413H18.22l1.79,2.463Zm2.321-.991.3-1,1.087.027A10.233,10.233,0,0,1,21.5,23.688Zm3.164-2.875-3.082-.078-1.793-2.469,1.149-3.532,2.9-.942,2.73,1.881A10.175,10.175,0,0,1,24.663,20.813Z" transform="translate(-4.153 -2.616)" fill="#fff"/>
</svg>
