<svg xmlns="http://www.w3.org/2000/svg" width="28.569" height="25.061" viewBox="0 0 28.569 25.061">
  <path id="Pfad_290" data-name="Pfad 290" d="M29,16h-.59c.145-.228.3-.453.435-.683a8.06,8.06,0,0,0,.1-8.119A7.293,7.293,0,0,0,16,7.351,7.293,7.293,0,0,0,3.053,7.2a8.06,8.06,0,0,0,.1,8.119c.139.23.29.455.435.683H3a1,1,0,0,0,0,2H4.94c.062.086.121.177.184.262A37.164,37.164,0,0,0,15.473,27.85a1,1,0,0,0,1.054,0,37.164,37.164,0,0,0,10.349-9.588c.063-.085.122-.176.184-.262H29a1,1,0,0,0,0-2ZM4.866,14.283A6.06,6.06,0,0,1,4.8,8.18a5.381,5.381,0,0,1,4.7-2.841,5.4,5.4,0,0,1,4.871,3.207L15.1,10.1a1,1,0,0,0,1.808,0l.734-1.554A5.3,5.3,0,0,1,27.2,8.18a6.06,6.06,0,0,1-.071,6.1c-.353.582-.728,1.153-1.113,1.717H20a1,1,0,0,0-.8.4l-2.029,2.7L13.9,12.553a1.042,1.042,0,0,0-1.79,0L10.382,16h-4.4C5.594,15.436,5.219,14.865,4.866,14.283ZM16,25.816A35.071,35.071,0,0,1,7.447,18H11a1,1,0,0,0,.9-.553L13,15.236l3.1,6.211A1,1,0,0,0,16.91,22c.03,0,.061,0,.09,0a1,1,0,0,0,.8-.4L20.5,18h4.053A35.071,35.071,0,0,1,16,25.816Z" transform="translate(-1.716 -3.139)" fill="#b7cae5" stroke="#b7cae5" stroke-width="0.4"/>
</svg>
