<svg xmlns="http://www.w3.org/2000/svg" width="25.062" height="25.062" viewBox="0 0 25.062 25.062">
  <g id="Gruppe_38" data-name="Gruppe 38" transform="translate(-208.935 -772.969)">
    <g id="_01_-_Widget" data-name="01 - Widget" transform="translate(209.435 773.469)">
      <path id="Pfad_145" data-name="Pfad 145"
        d="M6.549,1A5.549,5.549,0,1,0,12.1,6.549,5.552,5.552,0,0,0,6.549,1Zm0,1.537A4.013,4.013,0,1,1,2.537,6.549,4.015,4.015,0,0,1,6.549,2.537Z"
        transform="translate(-1 -1)" fill="currentColor" stroke="currentColor" stroke-width="1" fill-rule="evenodd" />
      <path id="Pfad_146" data-name="Pfad 146"
        d="M6.549,16.556A5.549,5.549,0,1,0,12.1,22.105,5.552,5.552,0,0,0,6.549,16.556Zm0,1.537a4.013,4.013,0,1,1-4.013,4.013A4.015,4.015,0,0,1,6.549,18.093Z"
        transform="translate(-1 -3.593)" fill="currentColor" stroke="currentColor" stroke-width="1"
        fill-rule="evenodd" />
      <path id="Pfad_147" data-name="Pfad 147"
        d="M22.105,1a5.549,5.549,0,1,0,5.549,5.549A5.552,5.552,0,0,0,22.105,1Zm0,1.537a4.012,4.012,0,1,1-4.012,4.012A4.014,4.014,0,0,1,22.105,2.537Z"
        transform="translate(-3.593 -1)" fill="currentColor" stroke="currentColor" stroke-width="1"
        fill-rule="evenodd" />
      <path id="Pfad_148" data-name="Pfad 148"
        d="M22.105,16.556a5.549,5.549,0,1,0,5.549,5.549A5.552,5.552,0,0,0,22.105,16.556Zm0,1.537a4.012,4.012,0,1,1-4.012,4.012A4.014,4.014,0,0,1,22.105,18.093Z"
        transform="translate(-3.593 -3.593)" fill="currentColor" stroke="currentColor" stroke-width="1"
        fill-rule="evenodd" />
    </g>
  </g>
</svg>
