<svg xmlns="http://www.w3.org/2000/svg" width="26" height="21.358" viewBox="0 0 26 21.358">
  <path id="_11_-_Massage" data-name="11 - Massage" d="M26.25,8.577A2.577,2.577,0,0,0,23.673,6H3.827A2.577,2.577,0,0,0,1.25,8.577V19.1a2.577,2.577,0,0,0,2.577,2.577h16.2a.869.869,0,0,1,.614.254L24.8,26.091a.847.847,0,0,0,1.447-.6V8.577Zm-1.695,0V23.446l-2.712-2.712a2.563,2.563,0,0,0-1.813-.751H3.827a.882.882,0,0,1-.882-.882V8.577a.882.882,0,0,1,.882-.882H23.673A.882.882,0,0,1,24.555,8.577Z" transform="translate(-0.75 -5.5)" fill="#b7cae5" stroke="#b7cae5" stroke-width="1" fill-rule="evenodd"/>
</svg>
