<svg xmlns="http://www.w3.org/2000/svg" width="25.999" height="26.008" viewBox="0 0 25.999 26.008">
  <g id="Gruppe_522" data-name="Gruppe 522" transform="translate(-367.574 -367.522)">
    <path id="Pfad_663" data-name="Pfad 663"
      d="M380.566,393.013c-1.463,0-2.928.028-4.39-.008a10.758,10.758,0,0,1-3.984-.793,6.208,6.208,0,0,1-3.623-4.171,11.1,11.1,0,0,1-.48-3.115q-.031-4.4,0-8.81a10.966,10.966,0,0,1,.572-3.4,6.248,6.248,0,0,1,4.4-4.2,11.313,11.313,0,0,1,3.168-.481q4.363-.028,8.726,0a10.7,10.7,0,0,1,3.683.664,6.227,6.227,0,0,1,3.94,4.314,12.045,12.045,0,0,1,.487,3.388c.011,2.837.014,5.673-.009,8.51a11.168,11.168,0,0,1-.508,3.22,6.31,6.31,0,0,1-4.632,4.447,14.55,14.55,0,0,1-3.94.452c-1.136,0-2.272,0-3.409,0Zm.02-23.241v-.014q-1.732,0-3.464,0a13.325,13.325,0,0,0-3.3.34,4.685,4.685,0,0,0-3.6,3.422,9.652,9.652,0,0,0-.389,2.635c-.017,2.791-.015,5.583-.011,8.374a11.173,11.173,0,0,0,.335,2.753,4.649,4.649,0,0,0,3.2,3.52,9.5,9.5,0,0,0,2.9.461c2.673.019,5.345.013,8.018.015a11.8,11.8,0,0,0,3.263-.394A4.62,4.62,0,0,0,390.9,387.6a9.785,9.785,0,0,0,.417-2.767c.018-2.764.032-5.529,0-8.292a13.788,13.788,0,0,0-.279-2.54,4.632,4.632,0,0,0-3.743-3.894,12.867,12.867,0,0,0-2.37-.318C383.478,369.736,382.031,369.772,380.586,369.772Z"
      transform="translate(0 0)" fill="currentColor" stroke="currentColor" stroke-width="1" />
    <path id="Pfad_664" data-name="Pfad 664"
      d="M537.854,479.5q-1.485,0-2.971,0a.875.875,0,1,1-.013-1.743q2.984-.007,5.969,0a.893.893,0,0,1,.943.885.88.88,0,0,1-.958.859Q539.339,479.5,537.854,479.5Z"
      transform="translate(-153.796 -101.754)" fill="currentColor" stroke="currentColor" stroke-width="1" />
    <path id="Pfad_665" data-name="Pfad 665"
      d="M537.848,589.866c.972,0,1.944,0,2.916,0a.94.94,0,0,1,.8.322.814.814,0,0,1,.154.841.828.828,0,0,1-.675.565,1.553,1.553,0,0,1-.244.018q-2.957,0-5.914,0a.891.891,0,0,1-.964-.8.858.858,0,0,1,.846-.937c.572-.02,1.144-.008,1.717-.009Z"
      transform="translate(-153.788 -205.714)" fill="currentColor" stroke="currentColor" stroke-width="1" />
    <path id="Pfad_666" data-name="Pfad 666"
      d="M439.619,568.407c.718-.721,1.369-1.38,2.025-2.033a.838.838,0,0,1,.9-.213.815.815,0,0,1,.58.69.829.829,0,0,1-.245.748c-.864.87-1.728,1.741-2.6,2.6a.852.852,0,0,1-1.264-.007q-.421-.407-.828-.829a.87.87,0,1,1,1.234-1.225A2.165,2.165,0,0,1,439.619,568.407Z"
      transform="translate(-64.759 -183.688)" fill="currentColor" stroke="currentColor" stroke-width="1" />
    <path id="Pfad_667" data-name="Pfad 667"
      d="M439.653,456.332c.083-.078.156-.143.226-.213.585-.585,1.166-1.174,1.757-1.753a.882.882,0,0,1,1.25-.023.86.86,0,0,1-.014,1.247q-1.282,1.3-2.584,2.584A.857.857,0,0,1,439,458.16q-.411-.4-.81-.81a.879.879,0,0,1-.036-1.249.892.892,0,0,1,1.271.018Z"
      transform="translate(-64.761 -79.818)" fill="currentColor" stroke="currentColor" stroke-width="1" />
  </g>
</svg>
