<svg xmlns="http://www.w3.org/2000/svg" width="26.068" height="25.036" viewBox="0 0 26.068 25.036">
  <path id="Pfad_49" data-name="Pfad 49"
    d="M-35.213-233.846a5.875,5.875,0,0,0-3.519-2.142.61.61,0,0,1-.469-.378l-2.622-7.176a1.833,1.833,0,0,0-.779-.934l4.394-7.03a1,1,0,0,0,.027-1.015,1,1,0,0,0-.875-.515h-10a1,1,0,0,0-.8.4l-2.815,3.754a2.341,2.341,0,0,0-2.5.849l-4.405,5.912a2.459,2.459,0,0,0-.461,1.874,2.462,2.462,0,0,0,1.018,1.638l12.118,8.573H-58.056a1,1,0,0,0-1,1,1,1,0,0,0,1,1h19a.969.969,0,0,0,.162-.032l3.73.068h.018a1,1,0,0,0,.966-.741A6.023,6.023,0,0,0-35.213-233.846Zm-13.343-17.19h7.7l-4.043,6.471a1.037,1.037,0,0,0-.064.168,4.145,4.145,0,0,1-1.925-.035,4.338,4.338,0,0,1-2.384-1.66,8.333,8.333,0,0,0-1.69-1.73Zm-5.009,4.2a.339.339,0,0,1,.472-.071l.883.645a6.2,6.2,0,0,1,1.323,1.357A6.328,6.328,0,0,0-47.4-242.5a6.288,6.288,0,0,0,3.759-.191l.715,1.956-2.573.754a1,1,0,0,0-.679,1.241,1,1,0,0,0,.96.719.975.975,0,0,0,.281-.041l2.7-.79.381,1.043-2.643.834a1,1,0,0,0-.653,1.255,1,1,0,0,0,.954.7,1.019,1.019,0,0,0,.3-.046l2.728-.862.09.247a2.6,2.6,0,0,0,1.95,1.651A4.023,4.023,0,0,1-37.163-233H-42a2.116,2.116,0,0,1-1.236-.4l-13.185-9.418a.936.936,0,0,0-.108-.048ZM-36-230.016l-7.6-.139-14.258-10.087a.479.479,0,0,1-.2-.319.488.488,0,0,1,.09-.364l.281-.377a.992.992,0,0,0,.109.116l13.185,9.417A4.1,4.1,0,0,0-42-231h5.926A4.33,4.33,0,0,1-36-230.016Z"
    transform="translate(60.067 253.036)" fill="currentColor" />
</svg>
