<svg xmlns="http://www.w3.org/2000/svg" width="20.238" height="19.901" viewBox="0 0 20.238 19.901">
  <g id="Gruppe_47" data-name="Gruppe 47" transform="translate(-91.52 -215.025)">
    <path id="Pfad_215" data-name="Pfad 215"
      d="M11.312,2.547a9,9,0,1,0,9,9,9.007,9.007,0,0,0-9-9Zm0,1.424a7.578,7.578,0,1,1-7.578,7.578,7.582,7.582,0,0,1,7.578-7.578Z"
      transform="translate(89.21 212.478)" fill="currentColor" fill-rule="evenodd" />
    <path id="Pfad_216" data-name="Pfad 216"
      d="M28.142,26.9l-4.469-4.469a.712.712,0,0,0-1.007,1.007L27.135,27.9A.712.712,0,0,0,28.142,26.9Z"
      transform="translate(83.408 206.813)" fill="currentColor" fill-rule="evenodd" />
  </g>
</svg>
