<svg xmlns="http://www.w3.org/2000/svg" width="26.705" height="23.894" viewBox="0 0 26.705 23.894">
  <g id="Gruppe_45" data-name="Gruppe 45" transform="translate(-120.895 -757.696)">
    <g id="Gruppe_45-2" data-name="Gruppe 45" transform="translate(120.895 757.696)">
      <path id="Pfad_295" data-name="Pfad 295" d="M728,927.128l3.269,3.262c.109.109.22.215.321.331a1.356,1.356,0,0,1-.1,1.947,1.324,1.324,0,0,1-1.894-.025c-1.125-1.11-2.237-2.233-3.355-3.35-.062-.062-.126-.12-.208-.2a7.156,7.156,0,0,1-6.274.741,6.658,6.658,0,0,1-3.676-2.988,7.055,7.055,0,1,1,11.918.281Zm-1.665-3.934a4.216,4.216,0,1,0-4.195,4.229A4.142,4.142,0,0,0,726.335,923.194Z" transform="translate(-705.249 -909.159)" fill="#142c50"/>
      <path id="Pfad_296" data-name="Pfad 296" d="M615.969,836.375q5.5,0,11,0a3.038,3.038,0,0,1,.623.038,1.332,1.332,0,0,1,1.024,1.512,1.294,1.294,0,0,1-1.227,1.238c-.153.011-.307.01-.461.01h-21.9c-.1,0-.2,0-.3,0a1.4,1.4,0,1,1,.008-2.794Q610.353,836.368,615.969,836.375Z" transform="translate(-603.319 -836.374)" fill="#142c50"/>
      <path id="Pfad_297" data-name="Pfad 297" d="M607.474,934.959c-.933,0-1.866.009-2.8,0a1.36,1.36,0,0,1-1.366-1.807,1.245,1.245,0,0,1,1.243-.98c.944-.018,1.888-.008,2.832-.009s1.91-.008,2.865,0a1.37,1.37,0,0,1,1.372,1.856,1.255,1.255,0,0,1-1.249.933c-.966.015-1.932,0-2.9,0Z" transform="translate(-603.248 -923.728)" fill="#142c50"/>
      <path id="Pfad_298" data-name="Pfad 298" d="M607.471,1030.772c-.933,0-1.866.01-2.8,0a1.36,1.36,0,0,1-1.362-1.811,1.255,1.255,0,0,1,1.279-.979c.988-.015,1.976-.006,2.964-.007.9,0,1.8-.008,2.7,0a1.371,1.371,0,0,1,1.368,1.859,1.257,1.257,0,0,1-1.252.93c-.966.015-1.932,0-2.9,0Z" transform="translate(-603.248 -1011.108)" fill="#142c50"/>
    </g>
  </g>
</svg>
