<svg id="Gruppe_153" data-name="Gruppe 153" xmlns="http://www.w3.org/2000/svg" width="30" height="30"
  viewBox="0 0 30 30">
  <path id="Rechteck_3" data-name="Rechteck 3"
    d="M0,0H30a0,0,0,0,1,0,0V23a7,7,0,0,1-7,7H7a7,7,0,0,1-7-7V0A0,0,0,0,1,0,0Z" fill="#d55a00" />
  <g id="Gruppe_149" data-name="Gruppe 149" transform="translate(6.521 6.885)">
    <path id="Icon_awesome-star" data-name="Icon awesome-star"
      d="M9.01.564l-2.07,4.2L2.31,5.435a1.015,1.015,0,0,0-.561,1.731L5.1,10.431l-.792,4.612a1.014,1.014,0,0,0,1.471,1.068L9.92,13.933l4.143,2.178a1.014,1.014,0,0,0,1.471-1.068l-.792-4.612,3.35-3.265a1.015,1.015,0,0,0-.561-1.731L12.9,4.76,10.83.564A1.015,1.015,0,0,0,9.01.564Z"
      transform="translate(-1.441 0.001)" fill="#fff" />
    <text id="_1_4_km_from_your_location" data-name="1,4 km from your location" transform="translate(8.479 11.115)"
      fill="#d55a00" font-size="7" font-family="FilsonSoft-Bold, Filson Soft" font-weight="700">
      <tspan x="-3" y="0">7+</tspan>
    </text>
  </g>
</svg>
