<svg id="Gruppe_152" data-name="Gruppe 152" xmlns="http://www.w3.org/2000/svg" width="30" height="30" viewBox="0 0 30 30">
  <path id="Rechteck_2" data-name="Rechteck 2" d="M0,0H30a0,0,0,0,1,0,0V23a7,7,0,0,1-7,7H7a7,7,0,0,1-7-7V0A0,0,0,0,1,0,0Z" fill="#7abe84"/>
  <g id="Gruppe_148" data-name="Gruppe 148" transform="translate(8.36 6.885)">
    <path id="Icon_material-verified-user" data-name="Icon material-verified-user" d="M11.14,1.5,4.5,4.451V8.877a9.181,9.181,0,0,0,6.64,8.853,9.181,9.181,0,0,0,6.64-8.853V4.451Z" transform="translate(-4.5 -1.5)" fill="#fff"/>
    <path id="Icon_feather-check" data-name="Icon feather-check" d="M12.04,9,7.888,13.153,6,11.265" transform="translate(-2.38 -2.961)" fill="none" stroke="#5fdb9d" stroke-linecap="round" stroke-linejoin="round" stroke-width="1"/>
  </g>
</svg>
