<svg xmlns="http://www.w3.org/2000/svg" width="20.832" height="25.965" viewBox="0 0 20.832 25.965">
  <g id="watch" transform="translate(-4.85 -0.85)">
    <path id="Pfad_59" data-name="Pfad 59"
      d="M23.821,10.411h0V8.7A4.286,4.286,0,0,0,20.4,4.508V3.563A2.566,2.566,0,0,0,17.836,1H10.985A2.566,2.566,0,0,0,8.422,3.563v.945A4.286,4.286,0,0,0,5,8.7V18.966a4.286,4.286,0,0,0,3.422,4.191V24.1a2.566,2.566,0,0,0,2.563,2.563h6.851A2.566,2.566,0,0,0,20.4,24.1v-.945a4.286,4.286,0,0,0,3.422-4.191V17.255h0a1.711,1.711,0,0,0,1.711-1.711V12.121A1.71,1.71,0,0,0,23.821,10.411ZM18.232,9.057a3.388,3.388,0,0,0-3.822.552,3.388,3.388,0,0,0-3.822-.552A4.576,4.576,0,0,0,8.5,13.909c.808,4.166,5.433,5.8,5.628,5.866a.86.86,0,0,0,.556,0c.2-.068,4.82-1.7,5.628-5.866A4.576,4.576,0,0,0,18.232,9.057Zm.406,4.526h0c-.52,2.681-3.326,4.079-4.227,4.463-.9-.385-3.708-1.783-4.227-4.463a2.9,2.9,0,0,1,1.2-3.009,1.409,1.409,0,0,1,.657-.164,2.68,2.68,0,0,1,1.759.948.879.879,0,0,0,1.227,0c.6-.619,1.508-1.256,2.416-.784A2.9,2.9,0,0,1,18.638,13.583ZM10.985,2.711h6.851a.853.853,0,0,1,.852.852v.859H10.133V3.563A.853.853,0,0,1,10.985,2.711Zm6.851,22.243H10.985a.853.853,0,0,1-.852-.852v-.859h8.555V24.1A.853.853,0,0,1,17.836,24.954Zm4.274-5.989a2.57,2.57,0,0,1-2.567,2.567H9.278a2.57,2.57,0,0,1-2.567-2.567V8.7A2.57,2.57,0,0,1,9.278,6.133H19.544A2.57,2.57,0,0,1,22.11,8.7Z"
      fill="currentColor" stroke="currentColor" stroke-width="0.3" />
  </g>
</svg>
