<svg xmlns="http://www.w3.org/2000/svg" width="27.443" height="26.765" viewBox="0 0 27.443 26.765">
  <g id="Gruppe_20" data-name="Gruppe 20" transform="translate(-767.75 -4133.972)">
    <path id="Pfad_282" data-name="Pfad 282"
      d="M768,4150.1c.044-.149.084-.3.133-.447a2.586,2.586,0,0,1,3.193-1.684c.655.19,1.3.415,1.952.623.065.021.132.036.212.057a8.167,8.167,0,0,1,5.1-6.436,4.391,4.391,0,0,1-1.475-4.021,4.265,4.265,0,0,1,1.588-2.76,4.418,4.418,0,0,1,5.661,6.782,8.173,8.173,0,0,1,5.091,6.438c.121-.034.245-.063.365-.1.558-.181,1.113-.371,1.673-.544a2.588,2.588,0,0,1,3.407,2.006.393.393,0,0,0,.045.09v.685a.576.576,0,0,0-.037.1,2.618,2.618,0,0,1-1.977,2.126c-.441.132-.875.286-1.344.44.095.083.166.144.235.207a3.675,3.675,0,0,1,1.247,3.527,3.9,3.9,0,0,1-3.985,3.3q-7.614.009-15.229,0a3.885,3.885,0,0,1-.836-.072,3.8,3.8,0,0,1-3.057-2.853,3.678,3.678,0,0,1,1.249-3.975,1.983,1.983,0,0,1,.193-.124c-.572-.187-1.071-.344-1.566-.513a2.572,2.572,0,0,1-1.787-1.992.715.715,0,0,0-.049-.116Zm9.578,3.693a.186.186,0,0,0,.063.031c1.231.4,2.462.8,3.7,1.2a.584.584,0,0,0,.327-.02c.917-.291,1.832-.59,2.748-.887l1.047-.342a3.662,3.662,0,0,1-1.16-3.042c.039-1.524.019-3.051.007-4.577a2.835,2.835,0,1,0-5.67,0c-.008,1.683.016,3.367-.014,5.049a3.789,3.789,0,0,1-.272,1.349A8.328,8.328,0,0,1,777.578,4153.792Zm8.371,5.114a2.069,2.069,0,0,0-1.337-1.162q-1.137-.365-2.272-.735c-2.68-.869-5.357-1.746-8.041-2.6a2.1,2.1,0,0,0-2.286.589,2.152,2.152,0,0,0-.49,2.291,2.359,2.359,0,0,0,2.387,1.62q5.864,0,11.729,0Zm-4.487-22.873a2.828,2.828,0,1,0,2.846,2.811A2.837,2.837,0,0,0,781.461,4136.033Zm4.326,8.905c.034.538.092,1.075.1,1.613.013,1.569,0,3.138.008,4.708a1.708,1.708,0,0,0,2.208,1.651c.244-.068.484-.152.725-.23,1.257-.408,2.514-.812,3.769-1.224a1.029,1.029,0,0,0,.751-1.192,1.017,1.017,0,0,0-1.351-.76c-.959.3-1.926.588-2.868.938a.852.852,0,0,1-1.206-.842,6.039,6.039,0,0,0-.876-3.125A6.177,6.177,0,0,0,785.787,4144.938Zm-8.629,0c-.053.048-.127.108-.193.174a6.446,6.446,0,0,0-1.953,4.513.8.8,0,0,1-1.168.812c-.957-.309-1.914-.623-2.872-.929a1.022,1.022,0,1,0-.645,1.937c1.471.482,2.943.965,4.419,1.431a1.94,1.94,0,0,0,.774.088,1.7,1.7,0,0,0,1.536-1.735C777.1,4149.133,776.952,4147.033,777.158,4144.939Zm6.958,10.932,0,.056c.332.109.664.22,1,.327a3.549,3.549,0,0,1,2.441,2.47c.041.133.089.187.23.185.526-.01,1.053.011,1.578-.017a2.369,2.369,0,0,0,2.129-2.865,2.223,2.223,0,0,0-2.842-1.625c-.978.3-1.948.63-2.922.947Z"
      fill="currentColor" stroke="currentColor" stroke-width="0.5" />
  </g>
</svg>
